<mxfile host="Electron" modified="2024-04-23T12:36:04.177Z" agent="Mozilla/5.0 (X11; Linux x86_64) AppleWebKit/537.36 (KHTML, like Gecko) draw.io/24.2.5 Chrome/120.0.6099.109 Electron/28.1.0 Safari/537.36" etag="aoRZFxf1z_Oe0aVmzyV-" version="24.2.5" type="device" pages="6">
  <diagram name="Page-1" id="GORWww174EwCNjl5X41q">
    <mxGraphModel dx="1434" dy="822" grid="1" gridSize="10" guides="1" tooltips="1" connect="1" arrows="1" fold="1" page="1" pageScale="1" pageWidth="827" pageHeight="1169" math="0" shadow="0">
      <root>
        <mxCell id="O-n_4JGX8ovtJosGf-Kp-0" />
        <mxCell id="O-n_4JGX8ovtJosGf-Kp-1" parent="O-n_4JGX8ovtJosGf-Kp-0" />
        <mxCell id="fwk0Oy7W2BTvmklu4H2G-15" style="edgeStyle=orthogonalEdgeStyle;rounded=0;orthogonalLoop=1;jettySize=auto;html=1;exitX=0.5;exitY=1;exitDx=0;exitDy=0;entryX=0.5;entryY=0;entryDx=0;entryDy=0;" parent="O-n_4JGX8ovtJosGf-Kp-1" source="fwk0Oy7W2BTvmklu4H2G-0" target="fwk0Oy7W2BTvmklu4H2G-1" edge="1">
          <mxGeometry relative="1" as="geometry" />
        </mxCell>
        <mxCell id="fwk0Oy7W2BTvmklu4H2G-16" style="edgeStyle=orthogonalEdgeStyle;rounded=0;orthogonalLoop=1;jettySize=auto;html=1;exitX=0.5;exitY=1;exitDx=0;exitDy=0;entryX=0.5;entryY=0;entryDx=0;entryDy=0;" parent="O-n_4JGX8ovtJosGf-Kp-1" source="fwk0Oy7W2BTvmklu4H2G-0" target="fwk0Oy7W2BTvmklu4H2G-2" edge="1">
          <mxGeometry relative="1" as="geometry" />
        </mxCell>
        <mxCell id="fwk0Oy7W2BTvmklu4H2G-0" value="CFSMeshData" style="rounded=1;whiteSpace=wrap;html=1;fillColor=#f5f5f5;fontColor=#333333;strokeColor=#666666;" parent="O-n_4JGX8ovtJosGf-Kp-1" vertex="1">
          <mxGeometry x="80" y="240" width="120" height="40" as="geometry" />
        </mxCell>
        <mxCell id="fwk0Oy7W2BTvmklu4H2G-1" value="CFSMeshInfo" style="rounded=1;whiteSpace=wrap;html=1;fillColor=#f5f5f5;fontColor=#333333;strokeColor=#666666;" parent="O-n_4JGX8ovtJosGf-Kp-1" vertex="1">
          <mxGeometry x="80" y="320" width="120" height="40" as="geometry" />
        </mxCell>
        <mxCell id="fwk0Oy7W2BTvmklu4H2G-2" value="CFSRegData" style="rounded=1;whiteSpace=wrap;html=1;fillColor=#f5f5f5;fontColor=#333333;strokeColor=#666666;" parent="O-n_4JGX8ovtJosGf-Kp-1" vertex="1">
          <mxGeometry x="240" y="320" width="120" height="40" as="geometry" />
        </mxCell>
        <mxCell id="fwk0Oy7W2BTvmklu4H2G-8" style="edgeStyle=orthogonalEdgeStyle;rounded=0;orthogonalLoop=1;jettySize=auto;html=1;exitX=0.5;exitY=1;exitDx=0;exitDy=0;entryX=0.5;entryY=0;entryDx=0;entryDy=0;" parent="O-n_4JGX8ovtJosGf-Kp-1" source="fwk0Oy7W2BTvmklu4H2G-4" target="fwk0Oy7W2BTvmklu4H2G-5" edge="1">
          <mxGeometry relative="1" as="geometry" />
        </mxCell>
        <mxCell id="fwk0Oy7W2BTvmklu4H2G-9" style="edgeStyle=orthogonalEdgeStyle;rounded=0;orthogonalLoop=1;jettySize=auto;html=1;exitX=0.5;exitY=1;exitDx=0;exitDy=0;entryX=0.5;entryY=0;entryDx=0;entryDy=0;" parent="O-n_4JGX8ovtJosGf-Kp-1" source="fwk0Oy7W2BTvmklu4H2G-4" target="fwk0Oy7W2BTvmklu4H2G-6" edge="1">
          <mxGeometry relative="1" as="geometry" />
        </mxCell>
        <mxCell id="fwk0Oy7W2BTvmklu4H2G-4" value="CFSResultContainer" style="rounded=1;whiteSpace=wrap;html=1;fillColor=#f5f5f5;fontColor=#333333;strokeColor=#666666;" parent="O-n_4JGX8ovtJosGf-Kp-1" vertex="1">
          <mxGeometry x="440" y="240" width="120" height="40" as="geometry" />
        </mxCell>
        <mxCell id="fwk0Oy7W2BTvmklu4H2G-5" value="CFSResultInfo" style="rounded=1;whiteSpace=wrap;html=1;fillColor=#f5f5f5;fontColor=#333333;strokeColor=#666666;" parent="O-n_4JGX8ovtJosGf-Kp-1" vertex="1">
          <mxGeometry x="440" y="320" width="120" height="40" as="geometry" />
        </mxCell>
        <mxCell id="fwk0Oy7W2BTvmklu4H2G-6" value="CFSResultArray" style="rounded=1;whiteSpace=wrap;html=1;fillColor=#f5f5f5;fontColor=#333333;strokeColor=#666666;" parent="O-n_4JGX8ovtJosGf-Kp-1" vertex="1">
          <mxGeometry x="600" y="320" width="120" height="40" as="geometry" />
        </mxCell>
      </root>
    </mxGraphModel>
  </diagram>
  <diagram id="qOEJrdRMchcxRtVpQqsM" name="Page-2">
    <mxGraphModel dx="1434" dy="822" grid="1" gridSize="10" guides="1" tooltips="1" connect="1" arrows="1" fold="1" page="1" pageScale="1" pageWidth="827" pageHeight="1169" math="0" shadow="0">
      <root>
        <mxCell id="0" />
        <mxCell id="1" parent="0" />
        <mxCell id="lhw6A8s5XD66u9EGGaQC-1" style="edgeStyle=orthogonalEdgeStyle;rounded=0;orthogonalLoop=1;jettySize=auto;html=1;exitX=0.5;exitY=1;exitDx=0;exitDy=0;entryX=0.5;entryY=0;entryDx=0;entryDy=0;" parent="1" source="lhw6A8s5XD66u9EGGaQC-6" target="lhw6A8s5XD66u9EGGaQC-7" edge="1">
          <mxGeometry relative="1" as="geometry" />
        </mxCell>
        <mxCell id="lhw6A8s5XD66u9EGGaQC-2" style="edgeStyle=orthogonalEdgeStyle;rounded=0;orthogonalLoop=1;jettySize=auto;html=1;exitX=0.5;exitY=1;exitDx=0;exitDy=0;entryX=0.5;entryY=0;entryDx=0;entryDy=0;" parent="1" source="lhw6A8s5XD66u9EGGaQC-6" target="lhw6A8s5XD66u9EGGaQC-8" edge="1">
          <mxGeometry relative="1" as="geometry" />
        </mxCell>
        <mxCell id="lhw6A8s5XD66u9EGGaQC-3" style="edgeStyle=orthogonalEdgeStyle;rounded=0;orthogonalLoop=1;jettySize=auto;html=1;exitX=0.5;exitY=1;exitDx=0;exitDy=0;entryX=0.5;entryY=0;entryDx=0;entryDy=0;" parent="1" source="lhw6A8s5XD66u9EGGaQC-6" target="lhw6A8s5XD66u9EGGaQC-13" edge="1">
          <mxGeometry relative="1" as="geometry" />
        </mxCell>
        <mxCell id="lhw6A8s5XD66u9EGGaQC-4" style="edgeStyle=orthogonalEdgeStyle;rounded=0;orthogonalLoop=1;jettySize=auto;html=1;exitX=0.5;exitY=1;exitDx=0;exitDy=0;entryX=0.5;entryY=0;entryDx=0;entryDy=0;" parent="1" source="lhw6A8s5XD66u9EGGaQC-6" target="lhw6A8s5XD66u9EGGaQC-14" edge="1">
          <mxGeometry relative="1" as="geometry" />
        </mxCell>
        <mxCell id="lhw6A8s5XD66u9EGGaQC-5" style="edgeStyle=orthogonalEdgeStyle;rounded=0;orthogonalLoop=1;jettySize=auto;html=1;exitX=0.5;exitY=1;exitDx=0;exitDy=0;entryX=0.5;entryY=0;entryDx=0;entryDy=0;" parent="1" source="lhw6A8s5XD66u9EGGaQC-6" target="lhw6A8s5XD66u9EGGaQC-15" edge="1">
          <mxGeometry relative="1" as="geometry" />
        </mxCell>
        <mxCell id="lhw6A8s5XD66u9EGGaQC-6" value="CFSMeshData object" style="rounded=1;whiteSpace=wrap;html=1;fillColor=#fff2cc;strokeColor=#d6b656;" parent="1" vertex="1">
          <mxGeometry x="120" y="280" width="760" height="40" as="geometry" />
        </mxCell>
        <mxCell id="lhw6A8s5XD66u9EGGaQC-7" value="MeshInfo" style="rounded=1;whiteSpace=wrap;html=1;fillColor=#ffe6cc;strokeColor=#d79b00;" parent="1" vertex="1">
          <mxGeometry x="120" y="360" width="120" height="40" as="geometry" />
        </mxCell>
        <mxCell id="lhw6A8s5XD66u9EGGaQC-8" value="Regions" style="rounded=1;whiteSpace=wrap;html=1;fillColor=#ffe6cc;strokeColor=#d79b00;" parent="1" vertex="1">
          <mxGeometry x="280" y="360" width="120" height="40" as="geometry" />
        </mxCell>
        <mxCell id="lhw6A8s5XD66u9EGGaQC-9" value="CFSMeshInfo" style="rounded=1;whiteSpace=wrap;html=1;fillColor=#f5f5f5;fontColor=#333333;strokeColor=#666666;" parent="1" vertex="1">
          <mxGeometry x="120" y="400" width="120" height="40" as="geometry" />
        </mxCell>
        <mxCell id="lhw6A8s5XD66u9EGGaQC-10" value="CFSRegData" style="rounded=1;whiteSpace=wrap;html=1;fillColor=#f5f5f5;fontColor=#333333;strokeColor=#666666;" parent="1" vertex="1">
          <mxGeometry x="280" y="400" width="120" height="40" as="geometry" />
        </mxCell>
        <mxCell id="lhw6A8s5XD66u9EGGaQC-11" value="CFSRegData" style="rounded=1;whiteSpace=wrap;html=1;fillColor=#f5f5f5;fontColor=#333333;strokeColor=#666666;" parent="1" vertex="1">
          <mxGeometry x="280" y="440" width="120" height="40" as="geometry" />
        </mxCell>
        <mxCell id="lhw6A8s5XD66u9EGGaQC-12" value="CFSRegData" style="rounded=1;whiteSpace=wrap;html=1;fillColor=#f5f5f5;fontColor=#333333;strokeColor=#666666;" parent="1" vertex="1">
          <mxGeometry x="280" y="480" width="120" height="40" as="geometry" />
        </mxCell>
        <mxCell id="lhw6A8s5XD66u9EGGaQC-13" value="Coordinates" style="rounded=1;whiteSpace=wrap;html=1;fillColor=#ffe6cc;strokeColor=#d79b00;" parent="1" vertex="1">
          <mxGeometry x="440" y="360" width="120" height="40" as="geometry" />
        </mxCell>
        <mxCell id="lhw6A8s5XD66u9EGGaQC-14" value="Connectivity" style="rounded=1;whiteSpace=wrap;html=1;fillColor=#ffe6cc;strokeColor=#d79b00;" parent="1" vertex="1">
          <mxGeometry x="600" y="360" width="120" height="40" as="geometry" />
        </mxCell>
        <mxCell id="lhw6A8s5XD66u9EGGaQC-15" value="Types" style="rounded=1;whiteSpace=wrap;html=1;fillColor=#ffe6cc;strokeColor=#d79b00;" parent="1" vertex="1">
          <mxGeometry x="760" y="360" width="120" height="40" as="geometry" />
        </mxCell>
        <mxCell id="lhw6A8s5XD66u9EGGaQC-16" value="numpy.ndarray" style="rounded=1;whiteSpace=wrap;html=1;fillColor=#f5f5f5;fontColor=#333333;strokeColor=#666666;" parent="1" vertex="1">
          <mxGeometry x="440" y="400" width="120" height="40" as="geometry" />
        </mxCell>
        <mxCell id="lhw6A8s5XD66u9EGGaQC-17" value="numpy.ndarray" style="rounded=1;whiteSpace=wrap;html=1;fillColor=#f5f5f5;fontColor=#333333;strokeColor=#666666;" parent="1" vertex="1">
          <mxGeometry x="600" y="400" width="120" height="40" as="geometry" />
        </mxCell>
        <mxCell id="lhw6A8s5XD66u9EGGaQC-18" value="numpy.ndarray" style="rounded=1;whiteSpace=wrap;html=1;fillColor=#f5f5f5;fontColor=#333333;strokeColor=#666666;" parent="1" vertex="1">
          <mxGeometry x="760" y="400" width="120" height="40" as="geometry" />
        </mxCell>
      </root>
    </mxGraphModel>
  </diagram>
  <diagram id="b7B1ywzsbERHk_eLvwhG" name="Page-3">
    <mxGraphModel dx="1434" dy="822" grid="1" gridSize="10" guides="1" tooltips="1" connect="1" arrows="1" fold="1" page="1" pageScale="1" pageWidth="827" pageHeight="1169" math="0" shadow="0">
      <root>
        <mxCell id="0" />
        <mxCell id="1" parent="0" />
        <mxCell id="2R4-ejPmuQ6YGznsxVQb-1" style="edgeStyle=orthogonalEdgeStyle;rounded=0;orthogonalLoop=1;jettySize=auto;html=1;exitX=0.5;exitY=1;exitDx=0;exitDy=0;entryX=0.5;entryY=0;entryDx=0;entryDy=0;" parent="1" source="2R4-ejPmuQ6YGznsxVQb-6" target="2R4-ejPmuQ6YGznsxVQb-7" edge="1">
          <mxGeometry relative="1" as="geometry" />
        </mxCell>
        <mxCell id="2R4-ejPmuQ6YGznsxVQb-2" style="edgeStyle=orthogonalEdgeStyle;rounded=0;orthogonalLoop=1;jettySize=auto;html=1;exitX=0.5;exitY=1;exitDx=0;exitDy=0;entryX=0.5;entryY=0;entryDx=0;entryDy=0;" parent="1" source="2R4-ejPmuQ6YGznsxVQb-6" target="2R4-ejPmuQ6YGznsxVQb-8" edge="1">
          <mxGeometry relative="1" as="geometry" />
        </mxCell>
        <mxCell id="2R4-ejPmuQ6YGznsxVQb-3" style="edgeStyle=orthogonalEdgeStyle;rounded=0;orthogonalLoop=1;jettySize=auto;html=1;exitX=0.5;exitY=1;exitDx=0;exitDy=0;entryX=0.5;entryY=0;entryDx=0;entryDy=0;" parent="1" source="2R4-ejPmuQ6YGznsxVQb-6" target="2R4-ejPmuQ6YGznsxVQb-9" edge="1">
          <mxGeometry relative="1" as="geometry" />
        </mxCell>
        <mxCell id="2R4-ejPmuQ6YGznsxVQb-4" style="edgeStyle=orthogonalEdgeStyle;rounded=0;orthogonalLoop=1;jettySize=auto;html=1;exitX=0.5;exitY=1;exitDx=0;exitDy=0;entryX=0.5;entryY=0;entryDx=0;entryDy=0;" parent="1" source="2R4-ejPmuQ6YGznsxVQb-6" target="2R4-ejPmuQ6YGznsxVQb-10" edge="1">
          <mxGeometry relative="1" as="geometry" />
        </mxCell>
        <mxCell id="2R4-ejPmuQ6YGznsxVQb-5" style="edgeStyle=orthogonalEdgeStyle;rounded=0;orthogonalLoop=1;jettySize=auto;html=1;exitX=0.5;exitY=1;exitDx=0;exitDy=0;entryX=0.5;entryY=0;entryDx=0;entryDy=0;" parent="1" source="2R4-ejPmuQ6YGznsxVQb-6" target="2R4-ejPmuQ6YGznsxVQb-11" edge="1">
          <mxGeometry relative="1" as="geometry" />
        </mxCell>
        <mxCell id="2R4-ejPmuQ6YGznsxVQb-6" value="CFSRegData object" style="rounded=1;whiteSpace=wrap;html=1;fillColor=#fff2cc;strokeColor=#d6b656;" parent="1" vertex="1">
          <mxGeometry x="120" y="520" width="760" height="40" as="geometry" />
        </mxCell>
        <mxCell id="2R4-ejPmuQ6YGznsxVQb-7" value="Name" style="rounded=1;whiteSpace=wrap;html=1;fillColor=#ffe6cc;strokeColor=#d79b00;" parent="1" vertex="1">
          <mxGeometry x="120" y="600" width="120" height="40" as="geometry" />
        </mxCell>
        <mxCell id="2R4-ejPmuQ6YGznsxVQb-8" value="Nodes" style="rounded=1;whiteSpace=wrap;html=1;fillColor=#ffe6cc;strokeColor=#d79b00;" parent="1" vertex="1">
          <mxGeometry x="280" y="600" width="120" height="40" as="geometry" />
        </mxCell>
        <mxCell id="2R4-ejPmuQ6YGznsxVQb-9" value="Elements" style="rounded=1;whiteSpace=wrap;html=1;fillColor=#ffe6cc;strokeColor=#d79b00;" parent="1" vertex="1">
          <mxGeometry x="440" y="600" width="120" height="40" as="geometry" />
        </mxCell>
        <mxCell id="2R4-ejPmuQ6YGznsxVQb-10" value="Dimension" style="rounded=1;whiteSpace=wrap;html=1;fillColor=#ffe6cc;strokeColor=#d79b00;" parent="1" vertex="1">
          <mxGeometry x="600" y="600" width="120" height="40" as="geometry" />
        </mxCell>
        <mxCell id="2R4-ejPmuQ6YGznsxVQb-11" value="IsGroup" style="rounded=1;whiteSpace=wrap;html=1;fillColor=#ffe6cc;strokeColor=#d79b00;" parent="1" vertex="1">
          <mxGeometry x="760" y="600" width="120" height="40" as="geometry" />
        </mxCell>
        <mxCell id="2R4-ejPmuQ6YGznsxVQb-12" value="numpy.ndarray" style="rounded=1;whiteSpace=wrap;html=1;fillColor=#f5f5f5;fontColor=#333333;strokeColor=#666666;" parent="1" vertex="1">
          <mxGeometry x="280" y="640" width="120" height="40" as="geometry" />
        </mxCell>
        <mxCell id="2R4-ejPmuQ6YGznsxVQb-13" value="numpy.ndarray" style="rounded=1;whiteSpace=wrap;html=1;fillColor=#f5f5f5;fontColor=#333333;strokeColor=#666666;" parent="1" vertex="1">
          <mxGeometry x="440" y="640" width="120" height="40" as="geometry" />
        </mxCell>
        <mxCell id="2R4-ejPmuQ6YGznsxVQb-14" value="int" style="rounded=1;whiteSpace=wrap;html=1;fillColor=#f5f5f5;fontColor=#333333;strokeColor=#666666;" parent="1" vertex="1">
          <mxGeometry x="600" y="640" width="120" height="40" as="geometry" />
        </mxCell>
        <mxCell id="2R4-ejPmuQ6YGznsxVQb-15" value="bool" style="rounded=1;whiteSpace=wrap;html=1;fillColor=#f5f5f5;fontColor=#333333;strokeColor=#666666;" parent="1" vertex="1">
          <mxGeometry x="760" y="640" width="120" height="40" as="geometry" />
        </mxCell>
        <mxCell id="2R4-ejPmuQ6YGznsxVQb-16" value="str" style="rounded=1;whiteSpace=wrap;html=1;fillColor=#f5f5f5;fontColor=#333333;strokeColor=#666666;" parent="1" vertex="1">
          <mxGeometry x="120" y="640" width="120" height="40" as="geometry" />
        </mxCell>
      </root>
    </mxGraphModel>
  </diagram>
  <diagram id="M0kQHwcc3P6htCn-EVzE" name="Page-4">
    <mxGraphModel dx="1434" dy="-347" grid="1" gridSize="10" guides="1" tooltips="1" connect="1" arrows="1" fold="1" page="1" pageScale="1" pageWidth="827" pageHeight="1169" math="0" shadow="0">
      <root>
        <mxCell id="0" />
        <mxCell id="1" parent="0" />
        <mxCell id="rZRJt_9YZqW8NxeU_I9Z-1" style="edgeStyle=orthogonalEdgeStyle;rounded=0;orthogonalLoop=1;jettySize=auto;html=1;exitX=0.5;exitY=1;exitDx=0;exitDy=0;entryX=0.5;entryY=0;entryDx=0;entryDy=0;" parent="1" source="rZRJt_9YZqW8NxeU_I9Z-6" target="rZRJt_9YZqW8NxeU_I9Z-9" edge="1">
          <mxGeometry relative="1" as="geometry" />
        </mxCell>
        <mxCell id="rZRJt_9YZqW8NxeU_I9Z-2" style="edgeStyle=orthogonalEdgeStyle;rounded=0;orthogonalLoop=1;jettySize=auto;html=1;exitX=0.5;exitY=1;exitDx=0;exitDy=0;entryX=0.5;entryY=0;entryDx=0;entryDy=0;" parent="1" source="rZRJt_9YZqW8NxeU_I9Z-6" target="rZRJt_9YZqW8NxeU_I9Z-8" edge="1">
          <mxGeometry relative="1" as="geometry" />
        </mxCell>
        <mxCell id="rZRJt_9YZqW8NxeU_I9Z-3" style="edgeStyle=orthogonalEdgeStyle;rounded=0;orthogonalLoop=1;jettySize=auto;html=1;exitX=0.5;exitY=1;exitDx=0;exitDy=0;" parent="1" source="rZRJt_9YZqW8NxeU_I9Z-6" target="rZRJt_9YZqW8NxeU_I9Z-10" edge="1">
          <mxGeometry relative="1" as="geometry" />
        </mxCell>
        <mxCell id="rZRJt_9YZqW8NxeU_I9Z-4" style="edgeStyle=orthogonalEdgeStyle;rounded=0;orthogonalLoop=1;jettySize=auto;html=1;exitX=0.5;exitY=1;exitDx=0;exitDy=0;" parent="1" source="rZRJt_9YZqW8NxeU_I9Z-6" target="rZRJt_9YZqW8NxeU_I9Z-11" edge="1">
          <mxGeometry relative="1" as="geometry" />
        </mxCell>
        <mxCell id="rZRJt_9YZqW8NxeU_I9Z-5" style="edgeStyle=orthogonalEdgeStyle;rounded=0;orthogonalLoop=1;jettySize=auto;html=1;exitX=0.5;exitY=1;exitDx=0;exitDy=0;entryX=0.5;entryY=0;entryDx=0;entryDy=0;" parent="1" source="rZRJt_9YZqW8NxeU_I9Z-6" target="rZRJt_9YZqW8NxeU_I9Z-12" edge="1">
          <mxGeometry relative="1" as="geometry" />
        </mxCell>
        <mxCell id="rZRJt_9YZqW8NxeU_I9Z-6" value="CFSResultContainer object" style="rounded=1;whiteSpace=wrap;html=1;fillColor=#fff2cc;strokeColor=#d6b656;" parent="1" vertex="1">
          <mxGeometry x="40" y="1280" width="760" height="40" as="geometry" />
        </mxCell>
        <mxCell id="rZRJt_9YZqW8NxeU_I9Z-7" value="cfs_analysis_type" style="rounded=1;whiteSpace=wrap;html=1;fillColor=#f5f5f5;fontColor=#333333;strokeColor=#666666;" parent="1" vertex="1">
          <mxGeometry x="40" y="1400" width="120" height="40" as="geometry" />
        </mxCell>
        <mxCell id="rZRJt_9YZqW8NxeU_I9Z-8" value="MultiStepID" style="rounded=1;whiteSpace=wrap;html=1;fillColor=#ffe6cc;strokeColor=#d79b00;" parent="1" vertex="1">
          <mxGeometry x="200" y="1360" width="120" height="40" as="geometry" />
        </mxCell>
        <mxCell id="rZRJt_9YZqW8NxeU_I9Z-9" value="AnalysisType" style="rounded=1;whiteSpace=wrap;html=1;fillColor=#ffe6cc;strokeColor=#d79b00;" parent="1" vertex="1">
          <mxGeometry x="40" y="1360" width="120" height="40" as="geometry" />
        </mxCell>
        <mxCell id="rZRJt_9YZqW8NxeU_I9Z-10" value="Data" style="rounded=1;whiteSpace=wrap;html=1;fillColor=#ffe6cc;strokeColor=#d79b00;" parent="1" vertex="1">
          <mxGeometry x="360" y="1360" width="120" height="40" as="geometry" />
        </mxCell>
        <mxCell id="rZRJt_9YZqW8NxeU_I9Z-11" value="ResultInfo" style="rounded=1;whiteSpace=wrap;html=1;fillColor=#e1d5e7;strokeColor=#9673a6;" parent="1" vertex="1">
          <mxGeometry x="520" y="1360" width="120" height="40" as="geometry" />
        </mxCell>
        <mxCell id="rZRJt_9YZqW8NxeU_I9Z-12" value="StepValues" style="rounded=1;whiteSpace=wrap;html=1;fillColor=#e1d5e7;strokeColor=#9673a6;" parent="1" vertex="1">
          <mxGeometry x="680" y="1360" width="120" height="40" as="geometry" />
        </mxCell>
        <mxCell id="rZRJt_9YZqW8NxeU_I9Z-13" value="int" style="rounded=1;whiteSpace=wrap;html=1;fillColor=#f5f5f5;fontColor=#333333;strokeColor=#666666;" parent="1" vertex="1">
          <mxGeometry x="200" y="1400" width="120" height="40" as="geometry" />
        </mxCell>
        <mxCell id="rZRJt_9YZqW8NxeU_I9Z-14" value="numpy.ndarray" style="rounded=1;whiteSpace=wrap;html=1;fillColor=#f5f5f5;fontColor=#333333;strokeColor=#666666;" parent="1" vertex="1">
          <mxGeometry x="680" y="1400" width="120" height="40" as="geometry" />
        </mxCell>
        <mxCell id="rZRJt_9YZqW8NxeU_I9Z-15" value="CFSResultArray" style="rounded=1;whiteSpace=wrap;html=1;fillColor=#f5f5f5;fontColor=#333333;strokeColor=#666666;" parent="1" vertex="1">
          <mxGeometry x="360" y="1400" width="120" height="40" as="geometry" />
        </mxCell>
        <mxCell id="rZRJt_9YZqW8NxeU_I9Z-16" value="CFSResultInfo" style="rounded=1;whiteSpace=wrap;html=1;fillColor=#f5f5f5;fontColor=#333333;strokeColor=#666666;" parent="1" vertex="1">
          <mxGeometry x="520" y="1400" width="120" height="40" as="geometry" />
        </mxCell>
        <mxCell id="rZRJt_9YZqW8NxeU_I9Z-17" value="CFSResultArray" style="rounded=1;whiteSpace=wrap;html=1;fillColor=#f5f5f5;fontColor=#333333;strokeColor=#666666;" parent="1" vertex="1">
          <mxGeometry x="360" y="1440" width="120" height="40" as="geometry" />
        </mxCell>
        <mxCell id="rZRJt_9YZqW8NxeU_I9Z-18" value="CFSResultArray" style="rounded=1;whiteSpace=wrap;html=1;fillColor=#f5f5f5;fontColor=#333333;strokeColor=#666666;" parent="1" vertex="1">
          <mxGeometry x="360" y="1480" width="120" height="40" as="geometry" />
        </mxCell>
        <mxCell id="rZRJt_9YZqW8NxeU_I9Z-19" value="CFSResultInfo" style="rounded=1;whiteSpace=wrap;html=1;fillColor=#f5f5f5;fontColor=#333333;strokeColor=#666666;" parent="1" vertex="1">
          <mxGeometry x="520" y="1440" width="120" height="40" as="geometry" />
        </mxCell>
        <mxCell id="rZRJt_9YZqW8NxeU_I9Z-20" value="CFSResultInfo" style="rounded=1;whiteSpace=wrap;html=1;fillColor=#f5f5f5;fontColor=#333333;strokeColor=#666666;" parent="1" vertex="1">
          <mxGeometry x="520" y="1480" width="120" height="40" as="geometry" />
        </mxCell>
      </root>
    </mxGraphModel>
  </diagram>
  <diagram id="ZH08NtW8nQ2Gl8iH_SZN" name="Page-5">
    <mxGraphModel dx="1434" dy="-347" grid="1" gridSize="10" guides="1" tooltips="1" connect="1" arrows="1" fold="1" page="1" pageScale="1" pageWidth="827" pageHeight="1169" math="0" shadow="0">
      <root>
        <mxCell id="0" />
        <mxCell id="1" parent="0" />
        <mxCell id="7zzRHOXIroybPSx4t4YR-43" style="edgeStyle=orthogonalEdgeStyle;rounded=0;orthogonalLoop=1;jettySize=auto;html=1;exitX=0.5;exitY=1;exitDx=0;exitDy=0;entryX=0.5;entryY=0;entryDx=0;entryDy=0;" parent="1" source="7zzRHOXIroybPSx4t4YR-6" target="7zzRHOXIroybPSx4t4YR-33" edge="1">
          <mxGeometry relative="1" as="geometry">
            <Array as="points">
              <mxPoint x="580" y="1260" />
              <mxPoint x="220" y="1260" />
            </Array>
          </mxGeometry>
        </mxCell>
        <mxCell id="7zzRHOXIroybPSx4t4YR-45" style="edgeStyle=orthogonalEdgeStyle;rounded=0;orthogonalLoop=1;jettySize=auto;html=1;exitX=0.5;exitY=1;exitDx=0;exitDy=0;entryX=0.5;entryY=0;entryDx=0;entryDy=0;" parent="1" source="7zzRHOXIroybPSx4t4YR-6" target="7zzRHOXIroybPSx4t4YR-35" edge="1">
          <mxGeometry relative="1" as="geometry">
            <Array as="points">
              <mxPoint x="580" y="1260" />
              <mxPoint x="380" y="1260" />
            </Array>
          </mxGeometry>
        </mxCell>
        <mxCell id="7zzRHOXIroybPSx4t4YR-46" style="edgeStyle=orthogonalEdgeStyle;rounded=0;orthogonalLoop=1;jettySize=auto;html=1;exitX=0.5;exitY=1;exitDx=0;exitDy=0;entryX=0.5;entryY=0;entryDx=0;entryDy=0;" parent="1" source="7zzRHOXIroybPSx4t4YR-6" target="7zzRHOXIroybPSx4t4YR-37" edge="1">
          <mxGeometry relative="1" as="geometry">
            <Array as="points">
              <mxPoint x="580" y="1260" />
              <mxPoint x="540" y="1260" />
            </Array>
          </mxGeometry>
        </mxCell>
        <mxCell id="7zzRHOXIroybPSx4t4YR-47" style="edgeStyle=orthogonalEdgeStyle;rounded=0;orthogonalLoop=1;jettySize=auto;html=1;exitX=0.5;exitY=1;exitDx=0;exitDy=0;entryX=0.5;entryY=0;entryDx=0;entryDy=0;" parent="1" source="7zzRHOXIroybPSx4t4YR-6" target="7zzRHOXIroybPSx4t4YR-39" edge="1">
          <mxGeometry relative="1" as="geometry">
            <Array as="points">
              <mxPoint x="580" y="1260" />
              <mxPoint x="700" y="1260" />
            </Array>
          </mxGeometry>
        </mxCell>
        <mxCell id="7zzRHOXIroybPSx4t4YR-48" style="edgeStyle=orthogonalEdgeStyle;rounded=0;orthogonalLoop=1;jettySize=auto;html=1;exitX=0.5;exitY=1;exitDx=0;exitDy=0;entryX=0.5;entryY=0;entryDx=0;entryDy=0;" parent="1" source="7zzRHOXIroybPSx4t4YR-6" target="7zzRHOXIroybPSx4t4YR-41" edge="1">
          <mxGeometry relative="1" as="geometry">
            <Array as="points">
              <mxPoint x="580" y="1260" />
              <mxPoint x="860" y="1260" />
            </Array>
          </mxGeometry>
        </mxCell>
        <mxCell id="7zzRHOXIroybPSx4t4YR-49" style="edgeStyle=orthogonalEdgeStyle;rounded=0;orthogonalLoop=1;jettySize=auto;html=1;exitX=0.5;exitY=1;exitDx=0;exitDy=0;entryX=0.5;entryY=0;entryDx=0;entryDy=0;" parent="1" source="7zzRHOXIroybPSx4t4YR-6" target="7zzRHOXIroybPSx4t4YR-9" edge="1">
          <mxGeometry relative="1" as="geometry" />
        </mxCell>
        <mxCell id="7zzRHOXIroybPSx4t4YR-50" style="edgeStyle=orthogonalEdgeStyle;rounded=0;orthogonalLoop=1;jettySize=auto;html=1;exitX=0.5;exitY=1;exitDx=0;exitDy=0;entryX=0.5;entryY=0;entryDx=0;entryDy=0;" parent="1" source="7zzRHOXIroybPSx4t4YR-6" target="7zzRHOXIroybPSx4t4YR-8" edge="1">
          <mxGeometry relative="1" as="geometry" />
        </mxCell>
        <mxCell id="7zzRHOXIroybPSx4t4YR-51" style="edgeStyle=orthogonalEdgeStyle;rounded=0;orthogonalLoop=1;jettySize=auto;html=1;exitX=0.5;exitY=1;exitDx=0;exitDy=0;entryX=0.5;entryY=0;entryDx=0;entryDy=0;" parent="1" source="7zzRHOXIroybPSx4t4YR-6" target="7zzRHOXIroybPSx4t4YR-10" edge="1">
          <mxGeometry relative="1" as="geometry" />
        </mxCell>
        <mxCell id="7zzRHOXIroybPSx4t4YR-52" style="edgeStyle=orthogonalEdgeStyle;rounded=0;orthogonalLoop=1;jettySize=auto;html=1;exitX=0.5;exitY=1;exitDx=0;exitDy=0;entryX=0.5;entryY=0;entryDx=0;entryDy=0;" parent="1" source="7zzRHOXIroybPSx4t4YR-6" target="7zzRHOXIroybPSx4t4YR-23" edge="1">
          <mxGeometry relative="1" as="geometry" />
        </mxCell>
        <mxCell id="7zzRHOXIroybPSx4t4YR-53" style="edgeStyle=orthogonalEdgeStyle;rounded=0;orthogonalLoop=1;jettySize=auto;html=1;exitX=0.5;exitY=1;exitDx=0;exitDy=0;entryX=0.5;entryY=0;entryDx=0;entryDy=0;" parent="1" source="7zzRHOXIroybPSx4t4YR-6" target="7zzRHOXIroybPSx4t4YR-25" edge="1">
          <mxGeometry relative="1" as="geometry" />
        </mxCell>
        <mxCell id="7zzRHOXIroybPSx4t4YR-6" value="CFSResultArray object" style="rounded=1;whiteSpace=wrap;html=1;fillColor=#fff2cc;strokeColor=#d6b656;" parent="1" vertex="1">
          <mxGeometry x="240" y="1200" width="680" height="40" as="geometry" />
        </mxCell>
        <mxCell id="7zzRHOXIroybPSx4t4YR-7" value="cfs_analysis_type" style="rounded=1;whiteSpace=wrap;html=1;fillColor=#f5f5f5;fontColor=#333333;strokeColor=#666666;" parent="1" vertex="1">
          <mxGeometry x="80" y="1320" width="120" height="40" as="geometry" />
        </mxCell>
        <mxCell id="7zzRHOXIroybPSx4t4YR-8" value="DimNames" style="rounded=1;whiteSpace=wrap;html=1;fillColor=#ffe6cc;strokeColor=#d79b00;" parent="1" vertex="1">
          <mxGeometry x="240" y="1280" width="120" height="40" as="geometry" />
        </mxCell>
        <mxCell id="7zzRHOXIroybPSx4t4YR-9" value="AnalysisType" style="rounded=1;whiteSpace=wrap;html=1;fillColor=#ffe6cc;strokeColor=#d79b00;" parent="1" vertex="1">
          <mxGeometry x="80" y="1280" width="120" height="40" as="geometry" />
        </mxCell>
        <mxCell id="7zzRHOXIroybPSx4t4YR-10" value="IsComplex" style="rounded=1;whiteSpace=wrap;html=1;fillColor=#ffe6cc;strokeColor=#d79b00;" parent="1" vertex="1">
          <mxGeometry x="400" y="1280" width="120" height="40" as="geometry" />
        </mxCell>
        <mxCell id="7zzRHOXIroybPSx4t4YR-13" value="List[str]" style="rounded=1;whiteSpace=wrap;html=1;fillColor=#f5f5f5;fontColor=#333333;strokeColor=#666666;" parent="1" vertex="1">
          <mxGeometry x="240" y="1320" width="120" height="40" as="geometry" />
        </mxCell>
        <mxCell id="7zzRHOXIroybPSx4t4YR-15" value="bool" style="rounded=1;whiteSpace=wrap;html=1;fillColor=#f5f5f5;fontColor=#333333;strokeColor=#666666;" parent="1" vertex="1">
          <mxGeometry x="400" y="1320" width="120" height="40" as="geometry" />
        </mxCell>
        <mxCell id="7zzRHOXIroybPSx4t4YR-22" value="Inheritage" style="edgeStyle=orthogonalEdgeStyle;rounded=0;orthogonalLoop=1;jettySize=auto;html=1;exitX=0.5;exitY=0;exitDx=0;exitDy=0;entryX=0.5;entryY=0;entryDx=0;entryDy=0;dashed=1;" parent="1" source="7zzRHOXIroybPSx4t4YR-21" target="7zzRHOXIroybPSx4t4YR-6" edge="1">
          <mxGeometry x="-0.1818" relative="1" as="geometry">
            <mxPoint as="offset" />
          </mxGeometry>
        </mxCell>
        <mxCell id="7zzRHOXIroybPSx4t4YR-21" value="numpy.ndarray" style="rounded=1;whiteSpace=wrap;html=1;fillColor=#f5f5f5;fontColor=#333333;strokeColor=#666666;" parent="1" vertex="1">
          <mxGeometry x="80" y="1200" width="120" height="40" as="geometry" />
        </mxCell>
        <mxCell id="7zzRHOXIroybPSx4t4YR-23" value="MultiStepID" style="rounded=1;whiteSpace=wrap;html=1;fillColor=#ffe6cc;strokeColor=#d79b00;" parent="1" vertex="1">
          <mxGeometry x="560" y="1280" width="120" height="40" as="geometry" />
        </mxCell>
        <mxCell id="7zzRHOXIroybPSx4t4YR-24" value="int" style="rounded=1;whiteSpace=wrap;html=1;fillColor=#f5f5f5;fontColor=#333333;strokeColor=#666666;" parent="1" vertex="1">
          <mxGeometry x="560" y="1320" width="120" height="40" as="geometry" />
        </mxCell>
        <mxCell id="7zzRHOXIroybPSx4t4YR-25" value="Quantity" style="rounded=1;whiteSpace=wrap;html=1;fillColor=#ffe6cc;strokeColor=#d79b00;" parent="1" vertex="1">
          <mxGeometry x="720" y="1280" width="120" height="40" as="geometry" />
        </mxCell>
        <mxCell id="7zzRHOXIroybPSx4t4YR-26" value="str" style="rounded=1;whiteSpace=wrap;html=1;fillColor=#f5f5f5;fontColor=#333333;strokeColor=#666666;" parent="1" vertex="1">
          <mxGeometry x="720" y="1320" width="120" height="40" as="geometry" />
        </mxCell>
        <mxCell id="7zzRHOXIroybPSx4t4YR-33" value="Region" style="rounded=1;whiteSpace=wrap;html=1;fillColor=#ffe6cc;strokeColor=#d79b00;" parent="1" vertex="1">
          <mxGeometry x="160" y="1400" width="120" height="40" as="geometry" />
        </mxCell>
        <mxCell id="7zzRHOXIroybPSx4t4YR-34" value="cfs_analysis_type" style="rounded=1;whiteSpace=wrap;html=1;fillColor=#f5f5f5;fontColor=#333333;strokeColor=#666666;" parent="1" vertex="1">
          <mxGeometry x="160" y="1440" width="120" height="40" as="geometry" />
        </mxCell>
        <mxCell id="7zzRHOXIroybPSx4t4YR-35" value="ResType" style="rounded=1;whiteSpace=wrap;html=1;fillColor=#ffe6cc;strokeColor=#d79b00;" parent="1" vertex="1">
          <mxGeometry x="320" y="1400" width="120" height="40" as="geometry" />
        </mxCell>
        <mxCell id="7zzRHOXIroybPSx4t4YR-36" value="cfs_result_type" style="rounded=1;whiteSpace=wrap;html=1;fillColor=#f5f5f5;fontColor=#333333;strokeColor=#666666;" parent="1" vertex="1">
          <mxGeometry x="320" y="1440" width="120" height="40" as="geometry" />
        </mxCell>
        <mxCell id="7zzRHOXIroybPSx4t4YR-37" value="StepValues" style="rounded=1;whiteSpace=wrap;html=1;fillColor=#ffe6cc;strokeColor=#d79b00;" parent="1" vertex="1">
          <mxGeometry x="480" y="1400" width="120" height="40" as="geometry" />
        </mxCell>
        <mxCell id="7zzRHOXIroybPSx4t4YR-38" value="numpy.ndarray" style="rounded=1;whiteSpace=wrap;html=1;fillColor=#f5f5f5;fontColor=#333333;strokeColor=#666666;" parent="1" vertex="1">
          <mxGeometry x="480" y="1440" width="120" height="40" as="geometry" />
        </mxCell>
        <mxCell id="7zzRHOXIroybPSx4t4YR-39" value="ResultInfo" style="rounded=1;whiteSpace=wrap;html=1;fillColor=#e1d5e7;strokeColor=#9673a6;" parent="1" vertex="1">
          <mxGeometry x="640" y="1400" width="120" height="40" as="geometry" />
        </mxCell>
        <mxCell id="7zzRHOXIroybPSx4t4YR-40" value="CFSResultInfo" style="rounded=1;whiteSpace=wrap;html=1;fillColor=#f5f5f5;fontColor=#333333;strokeColor=#666666;" parent="1" vertex="1">
          <mxGeometry x="640" y="1440" width="120" height="40" as="geometry" />
        </mxCell>
        <mxCell id="7zzRHOXIroybPSx4t4YR-41" value="MetaData" style="rounded=1;whiteSpace=wrap;html=1;fillColor=#e1d5e7;strokeColor=#9673a6;" parent="1" vertex="1">
          <mxGeometry x="800" y="1400" width="120" height="40" as="geometry" />
        </mxCell>
        <mxCell id="7zzRHOXIroybPSx4t4YR-42" value="dict" style="rounded=1;whiteSpace=wrap;html=1;fillColor=#f5f5f5;fontColor=#333333;strokeColor=#666666;" parent="1" vertex="1">
          <mxGeometry x="800" y="1440" width="120" height="40" as="geometry" />
        </mxCell>
      </root>
    </mxGraphModel>
  </diagram>
  <diagram id="-NOHwdqmafpYIj3BXDVQ" name="Page-6">
    <mxGraphModel dx="1434" dy="-347" grid="1" gridSize="10" guides="1" tooltips="1" connect="1" arrows="1" fold="1" page="1" pageScale="1" pageWidth="827" pageHeight="1169" math="0" shadow="0">
      <root>
        <mxCell id="0" />
        <mxCell id="1" parent="0" />
        <mxCell id="uLYA5za88xOzGnQeQRGK-1" style="edgeStyle=orthogonalEdgeStyle;rounded=0;orthogonalLoop=1;jettySize=auto;html=1;exitX=0.5;exitY=1;exitDx=0;exitDy=0;entryX=0.5;entryY=0;entryDx=0;entryDy=0;" edge="1" parent="1" source="uLYA5za88xOzGnQeQRGK-11" target="uLYA5za88xOzGnQeQRGK-24">
          <mxGeometry relative="1" as="geometry">
            <Array as="points">
              <mxPoint x="500" y="1260" />
              <mxPoint x="220" y="1260" />
            </Array>
          </mxGeometry>
        </mxCell>
        <mxCell id="uLYA5za88xOzGnQeQRGK-2" style="edgeStyle=orthogonalEdgeStyle;rounded=0;orthogonalLoop=1;jettySize=auto;html=1;exitX=0.5;exitY=1;exitDx=0;exitDy=0;entryX=0.5;entryY=0;entryDx=0;entryDy=0;" edge="1" parent="1" source="uLYA5za88xOzGnQeQRGK-11" target="uLYA5za88xOzGnQeQRGK-26">
          <mxGeometry relative="1" as="geometry">
            <Array as="points">
              <mxPoint x="500" y="1260" />
              <mxPoint x="380" y="1260" />
            </Array>
          </mxGeometry>
        </mxCell>
        <mxCell id="uLYA5za88xOzGnQeQRGK-3" style="edgeStyle=orthogonalEdgeStyle;rounded=0;orthogonalLoop=1;jettySize=auto;html=1;exitX=0.5;exitY=1;exitDx=0;exitDy=0;entryX=0.5;entryY=0;entryDx=0;entryDy=0;" edge="1" parent="1" source="uLYA5za88xOzGnQeQRGK-11" target="uLYA5za88xOzGnQeQRGK-28">
          <mxGeometry relative="1" as="geometry">
            <Array as="points">
              <mxPoint x="500" y="1260" />
              <mxPoint x="540" y="1260" />
            </Array>
          </mxGeometry>
        </mxCell>
        <mxCell id="uLYA5za88xOzGnQeQRGK-4" style="edgeStyle=orthogonalEdgeStyle;rounded=0;orthogonalLoop=1;jettySize=auto;html=1;exitX=0.5;exitY=1;exitDx=0;exitDy=0;entryX=0.5;entryY=0;entryDx=0;entryDy=0;" edge="1" parent="1" source="uLYA5za88xOzGnQeQRGK-11" target="uLYA5za88xOzGnQeQRGK-30">
          <mxGeometry relative="1" as="geometry">
            <Array as="points">
              <mxPoint x="500" y="1260" />
              <mxPoint x="700" y="1260" />
            </Array>
          </mxGeometry>
        </mxCell>
        <mxCell id="uLYA5za88xOzGnQeQRGK-6" style="edgeStyle=orthogonalEdgeStyle;rounded=0;orthogonalLoop=1;jettySize=auto;html=1;exitX=0.5;exitY=1;exitDx=0;exitDy=0;entryX=0.5;entryY=0;entryDx=0;entryDy=0;" edge="1" parent="1" source="uLYA5za88xOzGnQeQRGK-11" target="uLYA5za88xOzGnQeQRGK-14">
          <mxGeometry relative="1" as="geometry" />
        </mxCell>
        <mxCell id="uLYA5za88xOzGnQeQRGK-7" style="edgeStyle=orthogonalEdgeStyle;rounded=0;orthogonalLoop=1;jettySize=auto;html=1;exitX=0.5;exitY=1;exitDx=0;exitDy=0;entryX=0.5;entryY=0;entryDx=0;entryDy=0;" edge="1" parent="1" source="uLYA5za88xOzGnQeQRGK-11" target="uLYA5za88xOzGnQeQRGK-13">
          <mxGeometry relative="1" as="geometry" />
        </mxCell>
        <mxCell id="uLYA5za88xOzGnQeQRGK-8" style="edgeStyle=orthogonalEdgeStyle;rounded=0;orthogonalLoop=1;jettySize=auto;html=1;exitX=0.5;exitY=1;exitDx=0;exitDy=0;entryX=0.5;entryY=0;entryDx=0;entryDy=0;" edge="1" parent="1" source="uLYA5za88xOzGnQeQRGK-11" target="uLYA5za88xOzGnQeQRGK-15">
          <mxGeometry relative="1" as="geometry" />
        </mxCell>
        <mxCell id="uLYA5za88xOzGnQeQRGK-9" style="edgeStyle=orthogonalEdgeStyle;rounded=0;orthogonalLoop=1;jettySize=auto;html=1;exitX=0.5;exitY=1;exitDx=0;exitDy=0;entryX=0.5;entryY=0;entryDx=0;entryDy=0;" edge="1" parent="1" source="uLYA5za88xOzGnQeQRGK-11" target="uLYA5za88xOzGnQeQRGK-20">
          <mxGeometry relative="1" as="geometry" />
        </mxCell>
        <mxCell id="uLYA5za88xOzGnQeQRGK-10" style="edgeStyle=orthogonalEdgeStyle;rounded=0;orthogonalLoop=1;jettySize=auto;html=1;exitX=0.5;exitY=1;exitDx=0;exitDy=0;entryX=0.5;entryY=0;entryDx=0;entryDy=0;" edge="1" parent="1" source="uLYA5za88xOzGnQeQRGK-11" target="uLYA5za88xOzGnQeQRGK-22">
          <mxGeometry relative="1" as="geometry" />
        </mxCell>
        <mxCell id="lZB5R4usR6lHZ67oULR3-3" style="edgeStyle=orthogonalEdgeStyle;rounded=0;orthogonalLoop=1;jettySize=auto;html=1;exitX=0.5;exitY=1;exitDx=0;exitDy=0;entryX=0.5;entryY=0;entryDx=0;entryDy=0;" edge="1" parent="1" source="uLYA5za88xOzGnQeQRGK-11" target="lZB5R4usR6lHZ67oULR3-1">
          <mxGeometry relative="1" as="geometry">
            <Array as="points">
              <mxPoint x="500" y="1260" />
              <mxPoint x="860" y="1260" />
            </Array>
          </mxGeometry>
        </mxCell>
        <mxCell id="uLYA5za88xOzGnQeQRGK-11" value="CFSResultInfo object" style="rounded=1;whiteSpace=wrap;html=1;fillColor=#fff2cc;strokeColor=#d6b656;" vertex="1" parent="1">
          <mxGeometry x="80" y="1200" width="840" height="40" as="geometry" />
        </mxCell>
        <mxCell id="uLYA5za88xOzGnQeQRGK-12" value="cfs_analysis_type" style="rounded=1;whiteSpace=wrap;html=1;fillColor=#f5f5f5;fontColor=#333333;strokeColor=#666666;" vertex="1" parent="1">
          <mxGeometry x="80" y="1320" width="120" height="40" as="geometry" />
        </mxCell>
        <mxCell id="uLYA5za88xOzGnQeQRGK-13" value="DimNames" style="rounded=1;whiteSpace=wrap;html=1;fillColor=#ffe6cc;strokeColor=#d79b00;" vertex="1" parent="1">
          <mxGeometry x="240" y="1280" width="120" height="40" as="geometry" />
        </mxCell>
        <mxCell id="uLYA5za88xOzGnQeQRGK-14" value="AnalysisType" style="rounded=1;whiteSpace=wrap;html=1;fillColor=#ffe6cc;strokeColor=#d79b00;" vertex="1" parent="1">
          <mxGeometry x="80" y="1280" width="120" height="40" as="geometry" />
        </mxCell>
        <mxCell id="uLYA5za88xOzGnQeQRGK-15" value="IsComplex" style="rounded=1;whiteSpace=wrap;html=1;fillColor=#ffe6cc;strokeColor=#d79b00;" vertex="1" parent="1">
          <mxGeometry x="400" y="1280" width="120" height="40" as="geometry" />
        </mxCell>
        <mxCell id="uLYA5za88xOzGnQeQRGK-16" value="List[str]" style="rounded=1;whiteSpace=wrap;html=1;fillColor=#f5f5f5;fontColor=#333333;strokeColor=#666666;" vertex="1" parent="1">
          <mxGeometry x="240" y="1320" width="120" height="40" as="geometry" />
        </mxCell>
        <mxCell id="uLYA5za88xOzGnQeQRGK-17" value="bool" style="rounded=1;whiteSpace=wrap;html=1;fillColor=#f5f5f5;fontColor=#333333;strokeColor=#666666;" vertex="1" parent="1">
          <mxGeometry x="400" y="1320" width="120" height="40" as="geometry" />
        </mxCell>
        <mxCell id="uLYA5za88xOzGnQeQRGK-20" value="MultiStepID" style="rounded=1;whiteSpace=wrap;html=1;fillColor=#ffe6cc;strokeColor=#d79b00;" vertex="1" parent="1">
          <mxGeometry x="560" y="1280" width="120" height="40" as="geometry" />
        </mxCell>
        <mxCell id="uLYA5za88xOzGnQeQRGK-21" value="int" style="rounded=1;whiteSpace=wrap;html=1;fillColor=#f5f5f5;fontColor=#333333;strokeColor=#666666;" vertex="1" parent="1">
          <mxGeometry x="560" y="1320" width="120" height="40" as="geometry" />
        </mxCell>
        <mxCell id="uLYA5za88xOzGnQeQRGK-22" value="Quantity" style="rounded=1;whiteSpace=wrap;html=1;fillColor=#ffe6cc;strokeColor=#d79b00;" vertex="1" parent="1">
          <mxGeometry x="720" y="1280" width="120" height="40" as="geometry" />
        </mxCell>
        <mxCell id="uLYA5za88xOzGnQeQRGK-23" value="str" style="rounded=1;whiteSpace=wrap;html=1;fillColor=#f5f5f5;fontColor=#333333;strokeColor=#666666;" vertex="1" parent="1">
          <mxGeometry x="720" y="1320" width="120" height="40" as="geometry" />
        </mxCell>
        <mxCell id="uLYA5za88xOzGnQeQRGK-24" value="Region" style="rounded=1;whiteSpace=wrap;html=1;fillColor=#ffe6cc;strokeColor=#d79b00;" vertex="1" parent="1">
          <mxGeometry x="160" y="1400" width="120" height="40" as="geometry" />
        </mxCell>
        <mxCell id="uLYA5za88xOzGnQeQRGK-25" value="cfs_analysis_type" style="rounded=1;whiteSpace=wrap;html=1;fillColor=#f5f5f5;fontColor=#333333;strokeColor=#666666;" vertex="1" parent="1">
          <mxGeometry x="160" y="1440" width="120" height="40" as="geometry" />
        </mxCell>
        <mxCell id="uLYA5za88xOzGnQeQRGK-26" value="ResType" style="rounded=1;whiteSpace=wrap;html=1;fillColor=#ffe6cc;strokeColor=#d79b00;" vertex="1" parent="1">
          <mxGeometry x="320" y="1400" width="120" height="40" as="geometry" />
        </mxCell>
        <mxCell id="uLYA5za88xOzGnQeQRGK-27" value="cfs_result_type" style="rounded=1;whiteSpace=wrap;html=1;fillColor=#f5f5f5;fontColor=#333333;strokeColor=#666666;" vertex="1" parent="1">
          <mxGeometry x="320" y="1440" width="120" height="40" as="geometry" />
        </mxCell>
        <mxCell id="uLYA5za88xOzGnQeQRGK-28" value="StepValues" style="rounded=1;whiteSpace=wrap;html=1;fillColor=#ffe6cc;strokeColor=#d79b00;" vertex="1" parent="1">
          <mxGeometry x="480" y="1400" width="120" height="40" as="geometry" />
        </mxCell>
        <mxCell id="uLYA5za88xOzGnQeQRGK-29" value="numpy.ndarray" style="rounded=1;whiteSpace=wrap;html=1;fillColor=#f5f5f5;fontColor=#333333;strokeColor=#666666;" vertex="1" parent="1">
          <mxGeometry x="480" y="1440" width="120" height="40" as="geometry" />
        </mxCell>
        <mxCell id="uLYA5za88xOzGnQeQRGK-30" value="DataShape" style="rounded=1;whiteSpace=wrap;html=1;fillColor=#ffe6cc;strokeColor=#d79b00;" vertex="1" parent="1">
          <mxGeometry x="640" y="1400" width="120" height="40" as="geometry" />
        </mxCell>
        <mxCell id="uLYA5za88xOzGnQeQRGK-31" value="tuple" style="rounded=1;whiteSpace=wrap;html=1;fillColor=#f5f5f5;fontColor=#333333;strokeColor=#666666;" vertex="1" parent="1">
          <mxGeometry x="640" y="1440" width="120" height="40" as="geometry" />
        </mxCell>
        <mxCell id="lZB5R4usR6lHZ67oULR3-1" value="MetaData" style="rounded=1;whiteSpace=wrap;html=1;fillColor=#e1d5e7;strokeColor=#9673a6;" vertex="1" parent="1">
          <mxGeometry x="800" y="1400" width="120" height="40" as="geometry" />
        </mxCell>
        <mxCell id="lZB5R4usR6lHZ67oULR3-2" value="dict" style="rounded=1;whiteSpace=wrap;html=1;fillColor=#f5f5f5;fontColor=#333333;strokeColor=#666666;" vertex="1" parent="1">
          <mxGeometry x="800" y="1440" width="120" height="40" as="geometry" />
        </mxCell>
      </root>
    </mxGraphModel>
  </diagram>
</mxfile>
